<!-- <svg xmlns="http://www.w3.org/2000/svg" viewBox="0 0 24 24" width="24" height="24" color="#000000" fill="none">
    <circle cx="12" cy="12" r="10" stroke="currentColor" stroke-width="1.5" />
    <path d="M15.4531 12.3948C15.3016 13.0215 14.5857 13.4644 13.1539 14.3502C11.7697 15.2064 11.0777 15.6346 10.5199 15.4625C10.2893 15.3913 10.0793 15.2562 9.90982 15.07C9.5 14.6198 9.5 13.7465 9.5 12C9.5 10.2535 9.5 9.38018 9.90982 8.92995C10.0793 8.74381 10.2893 8.60868 10.5199 8.53753C11.0777 8.36544 11.7697 8.79357 13.1539 9.64983C14.5857 10.5356 15.3016 10.9785 15.4531 11.6052C15.5156 11.8639 15.5156 12.1361 15.4531 12.3948Z" stroke="currentColor" stroke-width="1.5" stroke-linejoin="round" />
</svg> -->

<svg xmlns="http://www.w3.org/2000/svg" viewBox="0 0 24 24" width="24" height="24" color="#000000" fill="none">
    <path d="M18.8906 12.846C18.5371 14.189 16.8667 15.138 13.5257 17.0361C10.296 18.8709 8.6812 19.7884 7.37983 19.4196C6.8418 19.2671 6.35159 18.9776 5.95624 18.5787C5 17.6139 5 15.7426 5 12C5 8.2574 5 6.3861 5.95624 5.42132C6.35159 5.02245 6.8418 4.73288 7.37983 4.58042C8.6812 4.21165 10.296 5.12907 13.5257 6.96393C16.8667 8.86197 18.5371 9.811 18.8906 11.154C19.0365 11.7084 19.0365 12.2916 18.8906 12.846Z" stroke="currentColor" stroke-width="1.5" stroke-linejoin="round" />
</svg>